<svg width="14" height="14" viewBox="0 0 14 14" fill="none" xmlns="http://www.w3.org/2000/svg">
<path d="M3.5 0.875V1.75H2.1875C1.46289 1.75 0.875 2.33789 0.875 3.0625V4.375H13.125V3.0625C13.125 2.33789 12.5371 1.75 11.8125 1.75H10.5V0.875C10.5 0.391016 10.109 0 9.625 0C9.14102 0 8.75 0.391016 8.75 0.875V1.75H5.25V0.875C5.25 0.391016 4.85898 0 4.375 0C3.89102 0 3.5 0.391016 3.5 0.875ZM13.125 5.25H0.875V12.6875C0.875 13.4121 1.46289 14 2.1875 14H11.8125C12.5371 14 13.125 13.4121 13.125 12.6875V5.25Z" fill="#9A9B9C"/>
</svg>
