<svg width="15" height="15" viewBox="0 0 15 15" fill="none" xmlns="http://www.w3.org/2000/svg">
<path d="M12.3214 1.60714H13.3929V2.67857H12.3214V1.60714ZM11.7857 0C11.1931 0 10.7143 0.478795 10.7143 1.07143H4.28571C4.28571 0.478795 3.80692 0 3.21429 0H1.07143C0.478795 0 0 0.478795 0 1.07143V3.21429C0 3.80692 0.478795 4.28571 1.07143 4.28571V10.7143C0.478795 10.7143 0 11.1931 0 11.7857V13.9286C0 14.5212 0.478795 15 1.07143 15H3.21429C3.80692 15 4.28571 14.5212 4.28571 13.9286H10.7143C10.7143 14.5212 11.1931 15 11.7857 15H13.9286C14.5212 15 15 14.5212 15 13.9286V11.7857C15 11.1931 14.5212 10.7143 13.9286 10.7143V4.28571C14.5212 4.28571 15 3.80692 15 3.21429V1.07143C15 0.478795 14.5212 0 13.9286 0H11.7857ZM3.21429 4.28571C3.80692 4.28571 4.28571 3.80692 4.28571 3.21429H10.7143C10.7143 3.80692 11.1931 4.28571 11.7857 4.28571V10.7143C11.1931 10.7143 10.7143 11.1931 10.7143 11.7857H4.28571C4.28571 11.1931 3.80692 10.7143 3.21429 10.7143V4.28571ZM1.60714 12.3214H2.67857V13.3929H1.60714V12.3214ZM12.3214 13.3929V12.3214H13.3929V13.3929H12.3214ZM1.60714 2.67857V1.60714H2.67857V2.67857H1.60714Z" fill="#374151"/>
</svg>
