<svg width="15" height="12" viewBox="0 0 15 12" fill="none" xmlns="http://www.w3.org/2000/svg">
<path d="M11.25 1.125C11.25 0.503906 10.7461 0 10.125 0H7.875C7.25391 0 6.75 0.503906 6.75 1.125V2.25H5.25V0.5625C5.25 0.250781 4.99922 0 4.6875 0C4.37578 0 4.125 0.250781 4.125 0.5625V2.25H2.625V0.5625C2.625 0.250781 2.37422 0 2.0625 0C1.75078 0 1.5 0.250781 1.5 0.5625V2.25H1.125C0.503906 2.25 0 2.75391 0 3.375V5.625V10.875C0 11.4961 0.503906 12 1.125 12H7.125H7.875H10.125H13.875C14.4961 12 15 11.4961 15 10.875V5.625C15 5.00391 14.4961 4.5 13.875 4.5H11.25V1.125ZM13.5 8.625V9.375C13.5 9.58125 13.3313 9.75 13.125 9.75H12.375C12.1687 9.75 12 9.58125 12 9.375V8.625C12 8.41875 12.1687 8.25 12.375 8.25H13.125C13.3313 8.25 13.5 8.41875 13.5 8.625ZM5.625 9.75H4.875C4.66875 9.75 4.5 9.58125 4.5 9.375V8.625C4.5 8.41875 4.66875 8.25 4.875 8.25H5.625C5.83125 8.25 6 8.41875 6 8.625V9.375C6 9.58125 5.83125 9.75 5.625 9.75ZM3 9.375C3 9.58125 2.83125 9.75 2.625 9.75H1.875C1.66875 9.75 1.5 9.58125 1.5 9.375V8.625C1.5 8.41875 1.66875 8.25 1.875 8.25H2.625C2.83125 8.25 3 8.41875 3 8.625V9.375ZM13.125 6C13.3313 6 13.5 6.16875 13.5 6.375V7.125C13.5 7.33125 13.3313 7.5 13.125 7.5H12.375C12.1687 7.5 12 7.33125 12 7.125V6.375C12 6.16875 12.1687 6 12.375 6H13.125ZM6 4.125V4.875C6 5.08125 5.83125 5.25 5.625 5.25H4.875C4.66875 5.25 4.5 5.08125 4.5 4.875V4.125C4.5 3.91875 4.66875 3.75 4.875 3.75H5.625C5.83125 3.75 6 3.91875 6 4.125ZM2.625 3.75C2.83125 3.75 3 3.91875 3 4.125V4.875C3 5.08125 2.83125 5.25 2.625 5.25H1.875C1.66875 5.25 1.5 5.08125 1.5 4.875V4.125C1.5 3.91875 1.66875 3.75 1.875 3.75H2.625ZM6 7.125C6 7.33125 5.83125 7.5 5.625 7.5H4.875C4.66875 7.5 4.5 7.33125 4.5 7.125V6.375C4.5 6.16875 4.66875 6 4.875 6H5.625C5.83125 6 6 6.16875 6 6.375V7.125ZM2.625 7.5H1.875C1.66875 7.5 1.5 7.33125 1.5 7.125V6.375C1.5 6.16875 1.66875 6 1.875 6H2.625C2.83125 6 3 6.16875 3 6.375V7.125C3 7.33125 2.83125 7.5 2.625 7.5ZM9.75 6.375V7.125C9.75 7.33125 9.58125 7.5 9.375 7.5H8.625C8.41875 7.5 8.25 7.33125 8.25 7.125V6.375C8.25 6.16875 8.41875 6 8.625 6H9.375C9.58125 6 9.75 6.16875 9.75 6.375ZM9.375 1.5C9.58125 1.5 9.75 1.66875 9.75 1.875V2.625C9.75 2.83125 9.58125 3 9.375 3H8.625C8.41875 3 8.25 2.83125 8.25 2.625V1.875C8.25 1.66875 8.41875 1.5 8.625 1.5H9.375ZM9.75 4.125V4.875C9.75 5.08125 9.58125 5.25 9.375 5.25H8.625C8.41875 5.25 8.25 5.08125 8.25 4.875V4.125C8.25 3.91875 8.41875 3.75 8.625 3.75H9.375C9.58125 3.75 9.75 3.91875 9.75 4.125Z" fill="#4B5563"/>
</svg>
