<svg width="14" height="15" viewBox="0 0 14 15" fill="none" xmlns="http://www.w3.org/2000/svg">
<path d="M3.18573 4.31161V10.5456C3.47478 10.7125 3.71615 10.9538 3.88303 11.2429H10.117C10.117 11.2399 10.12 11.2369 10.12 11.2339L9.98588 10.9985L9.03231 9.32978C8.99059 9.33276 8.94887 9.33276 8.90716 9.33276C7.85525 9.33276 7.00001 8.47753 7.00001 7.42562C7.00001 6.37371 7.85525 5.51848 8.90716 5.51848C8.94887 5.51848 8.99059 5.51848 9.03231 5.52146L9.98588 3.85271L10.12 3.6173L10.117 3.60836H3.88303C3.71615 3.89741 3.47478 4.13878 3.18573 4.30565V4.31161ZM11.7768 10.2893C12.8257 10.2953 13.675 11.1446 13.675 12.1965C13.675 13.2484 12.8198 14.1036 11.7679 14.1036C11.0616 14.1036 10.4448 13.7192 10.117 13.15H3.88303C3.55226 13.7192 2.93839 14.1036 2.23216 14.1036C1.18025 14.1036 0.325012 13.2484 0.325012 12.1965C0.325012 11.4902 0.709421 10.8734 1.27858 10.5456V4.31161C0.709421 3.98382 0.325012 3.36698 0.325012 2.66074C0.325012 1.60884 1.18025 0.753601 2.23216 0.753601C2.93839 0.753601 3.55524 1.13801 3.88303 1.70717H10.117C10.4478 1.13801 11.0616 0.753601 11.7679 0.753601C12.8198 0.753601 13.675 1.60884 13.675 2.66074C13.675 3.71265 12.8257 4.56193 11.7768 4.56789L11.6427 4.8033L10.6891 6.47205L10.6206 6.59125C10.7458 6.84454 10.8143 7.12763 10.8143 7.4286C10.8143 7.72957 10.7458 8.01266 10.6206 8.26596L10.6891 8.38515L11.6427 10.0539L11.7768 10.2893Z" fill="#374151"/>
</svg>
